<?xml version="1.0" encoding="UTF-8" standalone="no"?>
<!-- Created with Inkscape (http://www.inkscape.org/) -->

<svg
   xmlns:dc="http://purl.org/dc/elements/1.1/"
   xmlns:cc="http://creativecommons.org/ns#"
   xmlns:rdf="http://www.w3.org/1999/02/22-rdf-syntax-ns#"
   xmlns:svg="http://www.w3.org/2000/svg"
   xmlns="http://www.w3.org/2000/svg"
   xmlns:sodipodi="http://sodipodi.sourceforge.net/DTD/sodipodi-0.dtd"
   xmlns:inkscape="http://www.inkscape.org/namespaces/inkscape"
   width="210mm"
   height="297mm"
   viewBox="0 0 744.09448819 1052.3622047"
   id="svg4156"
   version="1.1"
   inkscape:version="0.91 r13725"
   sodipodi:docname="drawing.svg">
  <defs
     id="defs4158" />
  <sodipodi:namedview
     id="base"
     pagecolor="#ffffff"
     bordercolor="#666666"
     borderopacity="1.0"
     inkscape:pageopacity="0.0"
     inkscape:pageshadow="2"
     inkscape:zoom="0.7"
     inkscape:cx="-249.42639"
     inkscape:cy="565.51982"
     inkscape:document-units="px"
     inkscape:current-layer="layer3"
     showgrid="false"
     inkscape:window-width="1920"
     inkscape:window-height="959"
     inkscape:window-x="0"
     inkscape:window-y="0"
     inkscape:window-maximized="1" />
  <metadata
     id="metadata4161">
    <rdf:RDF>
      <cc:Work
         rdf:about="">
        <dc:format>image/svg+xml</dc:format>
        <dc:type
           rdf:resource="http://purl.org/dc/dcmitype/StillImage" />
        <dc:title></dc:title>
      </cc:Work>
    </rdf:RDF>
  </metadata>
  <g
     inkscape:label="Layer 1"
     inkscape:groupmode="layer"
     id="layer1">
    <path
       id="path4752"
       d="m -51.806927,702.17986 c 5.1e-4,0.0102 0.003,0.0185 0.003,0.0287 0,1.13316 -0.9165,2.05223 -2.04709,2.05223 -1.13062,0 -2.0471,-0.91907 -2.0471,-2.05223 0,-0.0102 0.003,-0.0184 0.003,-0.0287 -6.54691,-0.1797 -8.22432,-1.24612 -8.22432,-2.53846 0,-0.40459 0.17662,-0.78556 0.60638,-1.12649 3.09502,-3.44776 4.0146,-2.49327 4.0146,-7.60049 0,-3.40515 0.13914,-6.52688 4.24,-7.08909 -0.0812,-0.18793 -0.12732,-0.39432 -0.12732,-0.61152 0,-0.85026 0.68749,-1.5393 1.53519,-1.5393 0.84769,0 1.5352,0.68904 1.5352,1.5393 0,0.2172 -0.0462,0.42359 -0.12734,0.61152 4.10086,0.56221 4.24001,3.68394 4.24001,7.08909 0,5.12262 0.92419,4.14501 4.04181,7.62976 0.40768,0.33374 0.57918,0.70392 0.57918,1.09722 0,1.29131 -1.72158,2.35772 -8.22484,2.53846 z m -2.04401,1.05564 c 0.56581,0 1.0238,-0.45954 1.0238,-1.02585 0,-0.003 -9.8e-4,-0.006 -9.8e-4,-0.009 -0.33424,0.004 -0.66541,0.0102 -1.02277,0.0102 -0.35736,0 -0.68802,-0.005 -1.02278,-0.0102 0,0.003 -9.8e-4,0.006 -9.8e-4,0.009 0,0.56631 0.45798,1.02585 1.0238,1.02585 z m 0,-20.53565 c -0.28291,0 -0.5114,0.22952 -0.5114,0.51293 0,0.28343 0.22849,0.51345 0.5114,0.51345 0.2829,0 0.5119,-0.23002 0.5119,-0.51345 0,-0.28341 -0.229,-0.51293 -0.5119,-0.51293 z m 9.03914,16.63914 c 0,0 -0.78145,-0.88004 -2.063,-2.04556 -1.74982,-1.59424 -2.35516,-2.35002 -2.35516,-6.37901 0,-3.93502 -0.21462,-6.16131 -4.62098,-6.16131 -4.40637,0 -4.62098,2.22629 -4.62098,6.16131 0,4.0295 -0.60586,4.7858 -2.35671,6.38056 -1.25639,1.14445 -2.04658,2.02399 -2.04658,2.02399 -0.2177,0.17303 -0.2177,0.27365 -0.2177,0.32243 0,0.0632 0.10526,1.54187 9.24197,1.54187 9.1367,0 9.24196,-1.47871 9.24196,-1.54187 0,-0.0411 0,-0.13708 -0.20282,-0.30241 z"
       inkscape:connector-curvature="0"
       style="clip-rule:evenodd;fill-rule:evenodd;stroke:#000000;stroke-width:0.88319999;stroke-linejoin:round;stroke-miterlimit:4;stroke-dasharray:none;stroke-opacity:1" />
  </g>
  <g
     inkscape:groupmode="layer"
     id="layer2"
     inkscape:label="Layer 2" />
  <g
     inkscape:groupmode="layer"
     id="layer3"
     inkscape:label="Layer 3">
    <g
       id="g5052"
       transform="matrix(4.0260844,0,0,4.0260844,109.05107,-2037.0332)">
      <g
         transform="matrix(2.6493897,0,0,2.6493897,-219.67839,549.71532)"
         id="Expanded">
        <g
           id="g4925">
          <g
             id="g4927">
            <path
               inkscape:connector-curvature="0"
               d="M 44,40 4,40 C 1.794,40 0,38.206 0,36 L 0,12 C 0,9.794 1.794,8 4,8 l 40,0 c 2.206,0 4,1.794 4,4 l 0,24 c 0,2.206 -1.794,4 -4,4 z M 4,10 c -1.103,0 -2,0.897 -2,2 l 0,24 c 0,1.103 0.897,2 2,2 l 40,0 c 1.103,0 2,-0.897 2,-2 l 0,-24 c 0,-1.103 -0.897,-2 -2,-2 L 4,10 Z"
               id="path4929" />
          </g>
          <g
             transform="matrix(1.2350923,0,0,-1.2350923,-5.5091896,30.034837)"
             id="g4931">
            <path
               inkscape:connector-curvature="0"
               d="M 24,29.191 6.457,17.84 C 5.993,17.539 5.86,16.921 6.16,16.457 6.46,15.993 7.079,15.861 7.543,16.16 L 24,26.809 40.457,16.16 c 0.464,-0.299 1.083,-0.167 1.383,0.297 0.3,0.464 0.167,1.082 -0.297,1.383 L 24,29.191 Z"
               id="path4933" />
          </g>
          <g
             id="g4939" />
        </g>
      </g>
      <rect
         y="551.8316"
         x="-210.72276"
         height="67.680222"
         width="109.34901"
         id="rect4983"
         style="fill:#ffffff;fill-opacity:1;stroke:#000000;stroke-width:0.89999998;stroke-linejoin:round;stroke-miterlimit:4;stroke-dasharray:none;stroke-opacity:1" />
      <path
         inkscape:connector-curvature="0"
         id="path5006"
         d="m -212.14286,581.46935 55.71429,34.46428 60.357141,-38.03571"
         style="fill:none;fill-rule:evenodd;stroke:#000000;stroke-width:1px;stroke-linecap:butt;stroke-linejoin:miter;stroke-opacity:1" />
      <path
         inkscape:connector-curvature="0"
         id="path5008"
         d="m -213.21429,579.8622 57.5,36.60715 58.035718,-37.85715 0,42.85715 -115.357138,0 z"
         style="fill:#ffffff;fill-opacity:1;fill-rule:evenodd;stroke:none;stroke-width:1px;stroke-linecap:butt;stroke-linejoin:miter;stroke-opacity:1" />
      <text
         sodipodi:linespacing="125%"
         id="text5013"
         y="646.38263"
         x="-184.50543"
         style="font-style:normal;font-variant:normal;font-weight:bold;font-stretch:normal;font-size:25px;line-height:125%;font-family:'American Typewriter';-inkscape-font-specification:'American Typewriter, Bold';text-align:start;letter-spacing:0px;word-spacing:0px;writing-mode:lr-tb;text-anchor:start;fill:#000000;fill-opacity:1;stroke:none;stroke-width:1px;stroke-linecap:butt;stroke-linejoin:miter;stroke-opacity:1"
         xml:space="preserve"><tspan
           style="font-style:normal;font-variant:normal;font-weight:bold;font-stretch:normal;font-size:25px;line-height:125%;font-family:'American Typewriter';-inkscape-font-specification:'American Typewriter, Bold';text-align:start;writing-mode:lr-tb;text-anchor:start"
           y="646.38263"
           x="-184.50543"
           id="tspan5015"
           sodipodi:role="line">SMS</tspan></text>
      <g
         transform="matrix(0.34862987,0,0,0.34862987,-173.88032,559.39212)"
         id="g4917">
        <g
           id="mail">
          <path
             inkscape:connector-curvature="0"
             d="M 93.136,24.456 C 91.02,19.519 88.007,15.236 84.098,11.608 80.188,7.98 75.482,5.139 69.981,3.083 64.479,1.028 58.322,0 51.511,0 46.593,0 41.907,0.615 37.454,1.844 33,3.074 28.869,4.817 25.06,7.074 21.251,9.332 17.795,12.062 14.691,15.266 11.587,18.47 8.947,22.048 6.771,25.997 4.594,29.948 2.921,34.23 1.753,38.844 0.584,43.461 0,48.287 0,53.325 c 0,7.337 1.199,13.906 3.597,19.71 2.397,5.804 5.865,10.722 10.399,14.752 4.534,4.03 10.056,7.113 16.566,9.25 6.509,2.135 13.895,3.204 22.158,3.204 4.716,0 9.039,-0.354 12.968,-1.058 3.93,-0.705 7.789,-1.865 11.578,-3.476 l -3.083,-7.436 c -3.023,1.289 -6.309,2.267 -9.855,2.932 -3.547,0.665 -7.457,0.998 -11.729,0.998 -6.933,0 -13.13,-0.867 -18.591,-2.6 C 28.546,87.867 23.921,85.338 20.133,82.013 16.344,78.688 13.442,74.618 11.427,69.801 9.411,64.985 8.404,59.493 8.404,53.326 c 0,-6.327 1.067,-12.232 3.204,-17.714 2.136,-5.481 5.109,-10.257 8.918,-14.329 3.809,-4.07 8.353,-7.275 13.633,-9.613 5.28,-2.337 11.064,-3.507 17.352,-3.507 5.239,0 10.086,0.816 14.54,2.448 4.453,1.632 8.283,3.89 11.487,6.771 3.204,2.882 5.714,6.298 7.528,10.248 1.814,3.951 2.721,8.263 2.721,12.938 0,4.474 -0.535,8.494 -1.603,12.061 -1.068,3.567 -2.509,6.581 -4.322,9.039 -1.814,2.459 -3.93,4.344 -6.348,5.653 -2.418,1.31 -4.978,1.965 -7.678,1.965 -1.17,0 -2.016,-0.322 -2.539,-0.967 -0.524,-0.644 -0.786,-1.551 -0.786,-2.721 0,-0.927 0.13,-2.045 0.393,-3.355 0.262,-1.309 0.574,-3.028 0.937,-4.761 l 7.799,-34.9 -9.613,0 -1.149,5.155 c -1.935,-2.095 -4.132,-3.59 -6.59,-4.678 -2.459,-1.088 -5.341,-1.583 -8.646,-1.583 -3.748,0 -7.296,0.912 -10.641,2.685 -3.346,1.774 -6.278,4.235 -8.797,7.358 -2.52,3.124 -4.504,6.829 -5.955,11.1 -1.451,4.273 -2.177,8.911 -2.177,13.909 0,3.386 0.463,6.401 1.391,9.04 0.927,2.64 2.216,4.878 3.869,6.712 1.652,1.835 3.637,3.226 5.955,4.172 2.317,0.948 4.846,1.421 7.587,1.421 3.224,0 6.288,-0.745 9.19,-2.237 2.902,-1.49 5.502,-3.607 7.799,-6.348 0.121,1.209 0.463,2.338 1.028,3.386 0.564,1.049 1.32,1.956 2.267,2.721 0.946,0.766 2.045,1.371 3.295,1.814 1.249,0.444 2.6,0.665 4.051,0.665 4.272,0 8.232,-0.846 11.88,-2.539 3.648,-1.693 6.802,-4.141 9.462,-7.346 2.66,-3.204 4.735,-7.124 6.227,-11.759 1.491,-4.634 2.237,-9.894 2.237,-15.78 0.001,-5.726 -1.058,-11.056 -3.174,-15.994 z M 56.831,53.325 c -0.565,2.459 -1.371,4.666 -2.418,6.62 -1.049,1.956 -2.267,3.628 -3.658,5.018 -1.391,1.391 -2.932,2.459 -4.625,3.204 -1.693,0.746 -3.446,1.118 -5.26,1.118 -6.933,0 -10.399,-4.373 -10.399,-13.12 0,-3.587 0.473,-6.972 1.421,-10.157 0.946,-3.183 2.207,-5.964 3.779,-8.343 1.572,-2.378 3.395,-4.262 5.471,-5.653 2.075,-1.39 4.241,-2.086 6.499,-2.086 3.062,0 5.662,0.565 7.799,1.693 2.136,1.129 3.909,2.5 5.32,4.111 l -3.929,17.595 z"
             id="path4908" />
        </g>
        <g
           id="Слой_1" />
      </g>
      <g
         id="g4979"
         transform="matrix(3.2722408,0,0,3.2722408,-234.77946,524.5974)">
        <path
           id="path4981"
           d="M 24,29.191 6.457,17.84 C 5.993,17.539 5.86,16.921 6.16,16.457 6.46,15.993 7.079,15.861 7.543,16.16 L 24,26.809 40.457,16.16 c 0.464,-0.299 1.083,-0.167 1.383,0.297 0.3,0.464 0.167,1.082 -0.297,1.383 L 24,29.191 Z"
           inkscape:connector-curvature="0" />
      </g>
      <g
         id="g4935"
         transform="matrix(2.6493897,0,0,2.6493897,-219.67839,549.71532)">
        <path
           inkscape:connector-curvature="0"
           d="M 6.001,34 C 5.678,34 5.36,33.844 5.168,33.555 4.861,33.095 4.985,32.475 5.445,32.168 l 9,-6 c 0.46,-0.307 1.081,-0.183 1.387,0.277 0.307,0.46 0.183,1.08 -0.277,1.387 l -9,6 C 6.384,33.945 6.191,34 6.001,34 Z"
           id="path4937" />
      </g>
      <path
         inkscape:connector-curvature="0"
         d="m 41.999,34 c -0.19,0 -0.383,-0.055 -0.554,-0.168 l -9,-6 c -0.46,-0.307 -0.584,-0.927 -0.277,-1.387 0.306,-0.46 0.926,-0.584 1.387,-0.277 l 9,6 c 0.46,0.307 0.584,0.927 0.277,1.387 C 42.64,33.844 42.322,34 41.999,34 Z"
         id="path4941"
         transform="matrix(2.6493897,0,0,2.6493897,-219.67839,549.71532)" />
    </g>
  </g>
</svg>
